<svg width="25" height="25" viewBox="0 0 25 25" fill="none" xmlns="http://www.w3.org/2000/svg">
<path d="M10.8107 18.421L16.2972 12.7927C16.3935 12.6938 16.4474 12.5612 16.4474 12.4232C16.4474 12.2851 16.3935 12.1525 16.2972 12.0537L10.8107 6.42327C10.7659 6.37717 10.7122 6.34053 10.6529 6.31551C10.5936 6.29049 10.5299 6.2776 10.4656 6.2776C10.4012 6.2776 10.3376 6.29049 10.2783 6.31551C10.219 6.34053 10.1653 6.37717 10.1204 6.42327C10.0281 6.51782 9.97639 6.64473 9.97639 6.77689C9.97639 6.90906 10.0281 7.03597 10.1204 7.13052L15.2797 12.4232L10.1204 17.7148C10.0284 17.8093 9.97691 17.936 9.97691 18.0679C9.97691 18.1998 10.0284 18.3265 10.1204 18.421C10.1653 18.4671 10.219 18.5037 10.2783 18.5287C10.3376 18.5538 10.4012 18.5667 10.4656 18.5667C10.5299 18.5667 10.5936 18.5538 10.6529 18.5287C10.7122 18.5037 10.7659 18.4671 10.8107 18.421Z" fill="#F36A3E"/>
<circle cx="12.4226" cy="12.4226" r="11.9991" transform="rotate(-180 12.4226 12.4226)" stroke="#F36A3E" stroke-width="0.846996"/>
</svg>
