<svg width="26" height="25" viewBox="0 0 26 25" fill="none" xmlns="http://www.w3.org/2000/svg">
<circle cx="12.4226" cy="12.4226" r="12.4226" transform="matrix(-1 0 0 1 25.3769 0)" fill="#F36A3E"/>
<rect width="16.9399" height="16.9399" transform="matrix(-1 0 0 1 21.4241 3.95288)" fill="#F36A3E"/>
<path d="M11.3426 6.42424L16.829 12.0525C16.9254 12.1514 16.9793 12.284 16.9793 12.422C16.9793 12.5601 16.9254 12.6927 16.829 12.7915L11.3426 18.4219C11.2977 18.468 11.244 18.5047 11.1848 18.5297C11.1255 18.5547 11.0618 18.5676 10.9974 18.5676C10.9331 18.5676 10.8694 18.5547 10.8101 18.5297C10.7509 18.5047 10.6972 18.468 10.6523 18.4219C10.56 18.3274 10.5083 18.2005 10.5083 18.0683C10.5083 17.9362 10.56 17.8092 10.6523 17.7147L15.8116 12.422L10.6523 7.13042C10.5603 7.03593 10.5088 6.90923 10.5088 6.77733C10.5088 6.64542 10.5603 6.51873 10.6523 6.42424C10.6972 6.37814 10.7509 6.34149 10.8101 6.31647C10.8694 6.29145 10.9331 6.27856 10.9974 6.27856C11.0618 6.27856 11.1255 6.29145 11.1848 6.31647C11.244 6.34149 11.2977 6.37814 11.3426 6.42424Z" fill="#FAFAFA"/>
</svg>
