<svg width="25" height="25" viewBox="0 0 25 25" fill="none" xmlns="http://www.w3.org/2000/svg">
<path d="M14.0345 6.42424L8.54806 12.0525C8.4517 12.1514 8.39777 12.284 8.39777 12.422C8.39777 12.5601 8.4517 12.6927 8.54806 12.7915L14.0345 18.4219C14.0794 18.468 14.133 18.5047 14.1923 18.5297C14.2516 18.5547 14.3153 18.5676 14.3796 18.5676C14.444 18.5676 14.5077 18.5547 14.5669 18.5297C14.6262 18.5047 14.6799 18.468 14.7248 18.4219C14.8171 18.3274 14.8688 18.2005 14.8688 18.0683C14.8688 17.9362 14.8171 17.8092 14.7248 17.7147L9.56551 12.422L14.7248 7.13042C14.8168 7.03593 14.8683 6.90923 14.8683 6.77733C14.8683 6.64542 14.8168 6.51873 14.7248 6.42424C14.6799 6.37814 14.6262 6.34149 14.5669 6.31647C14.5077 6.29145 14.444 6.27856 14.3796 6.27856C14.3153 6.27856 14.2516 6.29145 14.1923 6.31647C14.133 6.34149 14.0794 6.37814 14.0345 6.42424Z" fill="#F36A3E"/>
<circle cx="12.4226" cy="12.4226" r="11.9991" stroke="#F36A3E" stroke-width="0.846996"/>
</svg>
