<svg width="26" height="25" viewBox="0 0 26 25" fill="none" xmlns="http://www.w3.org/2000/svg">
<circle cx="12.4226" cy="12.4226" r="12.4226" transform="matrix(1 0 0 -1 0.531677 24.8452)" fill="#F36A3E"/>
<rect width="16.9399" height="16.9399" transform="matrix(1 0 0 -1 4.4845 20.8923)" fill="#F36A3E"/>
<path d="M14.566 18.421L9.07955 12.7927C8.98319 12.6938 8.92926 12.5612 8.92926 12.4232C8.92926 12.2851 8.98319 12.1525 9.07955 12.0537L14.566 6.42327C14.6109 6.37717 14.6645 6.34053 14.7238 6.31551C14.7831 6.29049 14.8468 6.2776 14.9111 6.2776C14.9755 6.2776 15.0392 6.29049 15.0984 6.31551C15.1577 6.34053 15.2114 6.37717 15.2563 6.42327C15.3486 6.51782 15.4003 6.64473 15.4003 6.77689C15.4003 6.90906 15.3486 7.03597 15.2563 7.13052L10.097 12.4232L15.2563 17.7148C15.3483 17.8093 15.3998 17.936 15.3998 18.0679C15.3998 18.1998 15.3483 18.3265 15.2563 18.421C15.2114 18.4671 15.1577 18.5037 15.0984 18.5287C15.0392 18.5538 14.9755 18.5667 14.9111 18.5667C14.8468 18.5667 14.7831 18.5538 14.7238 18.5287C14.6645 18.5037 14.6109 18.4671 14.566 18.421Z" fill="#FAFAFA"/>
</svg>
